<svg width="24" height="29" viewBox="0 0 24 29" fill="none" xmlns="http://www.w3.org/2000/svg">
<path d="M12 0C5.27 0 0 5.04 0 11.46C0 17.73 10.86 27.93 11.32 28.36L12 29L12.68 28.36C13.14 27.93 24 17.73 24 11.46C24 5.04 18.73 0 12 0ZM12 26.25C8.68 23.01 2 15.64 2 11.46C2 6.07 6.3 2 12 2C17.7 2 22 6.07 22 11.46C22 15.64 15.32 23.01 12 26.25Z" fill="white"/>
<path d="M12 6.81006C9.24 6.81006 7 9.05006 7 11.8101C7 14.5701 9.24 16.8101 12 16.8101C14.76 16.8101 17 14.5701 17 11.8101C17 9.05006 14.76 6.81006 12 6.81006ZM12 14.8101C10.35 14.8101 9 13.4601 9 11.8101C9 10.1601 10.35 8.81006 12 8.81006C13.65 8.81006 15 10.1601 15 11.8101C15 13.4601 13.65 14.8101 12 14.8101Z" fill="white"/>
</svg>
