<svg width="17" height="5" viewBox="0 0 17 5" fill="none" xmlns="http://www.w3.org/2000/svg">
<path d="M0.0640001 2.282C0.0640001 2.002 0.115333 1.74067 0.218 1.498C0.320667 1.25533 0.460667 1.04533 0.638 0.868C0.824667 0.681333 1.03933 0.536666 1.282 0.434C1.52467 0.331333 1.786 0.28 2.066 0.28C2.346 0.28 2.60733 0.331333 2.85 0.434C3.09267 0.536666 3.30267 0.681333 3.48 0.868C3.66667 1.04533 3.81133 1.25533 3.914 1.498C4.026 1.74067 4.082 2.002 4.082 2.282C4.082 2.562 4.026 2.82333 3.914 3.066C3.81133 3.30867 3.66667 3.52333 3.48 3.71C3.30267 3.88733 3.09267 4.02733 2.85 4.13C2.60733 4.23267 2.346 4.284 2.066 4.284C1.786 4.284 1.52467 4.23267 1.282 4.13C1.03933 4.02733 0.824667 3.88733 0.638 3.71C0.460667 3.52333 0.320667 3.30867 0.218 3.066C0.115333 2.82333 0.0640001 2.562 0.0640001 2.282ZM6.21634 2.282C6.21634 2.002 6.26768 1.74067 6.37034 1.498C6.47301 1.25533 6.61301 1.04533 6.79034 0.868C6.97701 0.681333 7.19168 0.536666 7.43434 0.434C7.67701 0.331333 7.93834 0.28 8.21834 0.28C8.49834 0.28 8.75968 0.331333 9.00234 0.434C9.24501 0.536666 9.45501 0.681333 9.63234 0.868C9.81901 1.04533 9.96368 1.25533 10.0663 1.498C10.1783 1.74067 10.2343 2.002 10.2343 2.282C10.2343 2.562 10.1783 2.82333 10.0663 3.066C9.96368 3.30867 9.81901 3.52333 9.63234 3.71C9.45501 3.88733 9.24501 4.02733 9.00234 4.13C8.75968 4.23267 8.49834 4.284 8.21834 4.284C7.93834 4.284 7.67701 4.23267 7.43434 4.13C7.19168 4.02733 6.97701 3.88733 6.79034 3.71C6.61301 3.52333 6.47301 3.30867 6.37034 3.066C6.26768 2.82333 6.21634 2.562 6.21634 2.282ZM12.3687 2.282C12.3687 2.002 12.42 1.74067 12.5227 1.498C12.6254 1.25533 12.7654 1.04533 12.9427 0.868C13.1294 0.681333 13.344 0.536666 13.5867 0.434C13.8294 0.331333 14.0907 0.28 14.3707 0.28C14.6507 0.28 14.912 0.331333 15.1547 0.434C15.3974 0.536666 15.6074 0.681333 15.7847 0.868C15.9714 1.04533 16.116 1.25533 16.2187 1.498C16.3307 1.74067 16.3867 2.002 16.3867 2.282C16.3867 2.562 16.3307 2.82333 16.2187 3.066C16.116 3.30867 15.9714 3.52333 15.7847 3.71C15.6074 3.88733 15.3974 4.02733 15.1547 4.13C14.912 4.23267 14.6507 4.284 14.3707 4.284C14.0907 4.284 13.8294 4.23267 13.5867 4.13C13.344 4.02733 13.1294 3.88733 12.9427 3.71C12.7654 3.52333 12.6254 3.30867 12.5227 3.066C12.42 2.82333 12.3687 2.562 12.3687 2.282Z" fill="white"/>
</svg>
