<svg width="29" height="27" viewBox="0 0 29 27" fill="none" xmlns="http://www.w3.org/2000/svg">
<path d="M29.0002 7.85996L24.5702 5.70996L22.3502 10.03L24.1302 10.95L24.8402 9.55996C25.4502 10.94 25.7902 12.43 25.7902 13.94C25.7902 20.04 20.6602 25.01 14.3502 25.01C12.4502 25.01 10.5602 24.55 8.90021 23.67L7.97021 25.44C9.92021 26.46 12.1202 27 14.3502 27C21.7602 27 27.7902 21.14 27.7902 13.93C27.7902 12.24 27.4402 10.57 26.7902 9.00996L28.1302 9.65996L29.0002 7.85996Z" fill="white"/>
<path d="M4.16 17.45C3.55 16.07 3.21 14.58 3.21 13.07C3.21 6.97 8.34 2 14.65 2C16.55 2 18.44 2.46 20.1 3.34L21.03 1.57C19.08 0.54 16.88 0 14.65 0C7.24 0 1.21 5.86 1.21 13.07C1.21 14.76 1.56 16.43 2.21 17.99L0.87 17.34L0 19.14L4.43 21.29L6.65 16.97L4.87 16.05L4.16 17.45Z" fill="white"/>
</svg>
